<svg xmlns="http://www.w3.org/2000/svg" width="261.781" height="43.877" viewBox="0 0 261.781 43.877">
  <path id="Path_86" data-name="Path 86" d="M23.812,43.877A24.744,24.744,0,0,1,7.155,37.445a23.373,23.373,0,0,1-2.311-2.41l-.112-.147c-.1-.125-.178-.232-.24-.319-.1-.134-.161-.225-.174-.245a1.024,1.024,0,0,1-.137-.737.512.512,0,0,1,.284-.3,4.135,4.135,0,0,1,1.514-.193,8.942,8.942,0,0,1,4.367,1c1.658,1.078,5.108,3.32,7.953,3.66a11.672,11.672,0,0,0,1.375.082c2.083,0,4.35-.6,4.405-1.931.061-1.446-4.162-1.7-4.2-1.7s-3.905-.343-4.9-2.616c0,0-.2-.464-.029-.735a.534.534,0,0,1,.483-.2,1.817,1.817,0,0,1,.344.038,82.874,82.874,0,0,0,13.74,1.357,29.048,29.048,0,0,0,7.391-.787c2.324-.63,3.856-1.642,4.553-3.009a15.629,15.629,0,0,0,1.329-6.327c0-9.5-8.558-17.518-18.688-17.518-10.263,0-19.266,8.186-19.266,17.518a15.944,15.944,0,0,0,2.435,8.437H4.919l-1.262.14c-1.248.137-1.387.675-1.389.68A19.933,19.933,0,0,1,0,21.984a19.41,19.41,0,0,1,2.04-8.646A22.573,22.573,0,0,1,7.454,6.36,25.7,25.7,0,0,1,24.17,0,24.39,24.39,0,0,1,40.528,6.36a21.062,21.062,0,0,1,7.1,15.624,19.714,19.714,0,0,1-1.543,7.651A21.616,21.616,0,0,1,41.9,36.049a24.736,24.736,0,0,1-18.088,7.828ZM240.175,39.24a8.059,8.059,0,0,1-2.74-.52,5.093,5.093,0,0,1-2.138-1.326l1.391-2.871a4.388,4.388,0,0,0,1.524,1,4.652,4.652,0,0,0,1.772.389,2.61,2.61,0,0,0,2-.667,3.19,3.19,0,0,0,.622-2.146V31.74a3.726,3.726,0,0,1-3.091,1.553,4.529,4.529,0,0,1-3.919-1.97,9.756,9.756,0,0,1-1.413-5.559V24.592a9.882,9.882,0,0,1,1.406-5.815,4.623,4.623,0,0,1,3.94-1.92,3.818,3.818,0,0,1,3.325,1.7l.161-1.407h3.736V33a6.1,6.1,0,0,1-1.7,4.636A6.871,6.871,0,0,1,240.175,39.24Zm.571-18.911a1.977,1.977,0,0,0-1.823,1.011,6.746,6.746,0,0,0-.593,3.252v1.04a6.782,6.782,0,0,0,.572,3.2,1.945,1.945,0,0,0,1.816,1,2.121,2.121,0,0,0,1.889-.923V21.34A2.083,2.083,0,0,0,240.746,20.329Zm15.425,12.964a6.525,6.525,0,0,1-4.981-1.9A7.7,7.7,0,0,1,249.4,25.94V24.68a9.054,9.054,0,0,1,1.64-5.786,5.715,5.715,0,0,1,4.7-2.037,5.408,5.408,0,0,1,4.5,1.909,9.154,9.154,0,0,1,1.538,5.653v2.033h-8.248a4.334,4.334,0,0,0,.777,2.582,2.635,2.635,0,0,0,2.124.816,4.68,4.68,0,0,0,3.471-1.42l1.626,2.5a5.376,5.376,0,0,1-2.212,1.706A7.623,7.623,0,0,1,256.171,33.293ZM255.716,20.3a1.729,1.729,0,0,0-1.574.777,5.364,5.364,0,0,0-.579,2.49h4.145v-.381a4.454,4.454,0,0,0-.469-2.154A1.637,1.637,0,0,0,255.716,20.3Zm-31,12.993a4.483,4.483,0,0,1-3.3-1.319,4.651,4.651,0,0,1-1.311-3.413,4.822,4.822,0,0,1,1.589-3.853,6.988,6.988,0,0,1,4.578-1.391h1.259V22.043a2.393,2.393,0,0,0-.366-1.508,1.317,1.317,0,0,0-1.069-.44c-1.03,0-1.552.611-1.552,1.817H220.4a4.607,4.607,0,0,1,1.648-3.626,6.163,6.163,0,0,1,4.168-1.428,5.657,5.657,0,0,1,4.036,1.355,5.109,5.109,0,0,1,1.428,3.874v7.457a7.815,7.815,0,0,0,.586,3.208V33H228.09a5.819,5.819,0,0,1-.352-1.231A3.556,3.556,0,0,1,224.72,33.293Zm1.817-7.485a2.138,2.138,0,0,0-1.663.674,2.6,2.6,0,0,0-.607,1.8c0,1.166.463,1.758,1.377,1.758a2.324,2.324,0,0,0,1.172-.278,1.973,1.973,0,0,0,.717-.66v-3.3ZM203.1,33.293a6.525,6.525,0,0,1-4.981-1.9,7.7,7.7,0,0,1-1.787-5.449V24.68a9.053,9.053,0,0,1,1.641-5.786,5.715,5.715,0,0,1,4.7-2.037,5.408,5.408,0,0,1,4.5,1.909,9.154,9.154,0,0,1,1.538,5.653v2.033h-8.248a4.334,4.334,0,0,0,.777,2.582,2.635,2.635,0,0,0,2.124.816,4.68,4.68,0,0,0,3.471-1.42l1.626,2.5a5.376,5.376,0,0,1-2.212,1.706A7.623,7.623,0,0,1,203.1,33.293ZM202.645,20.3a1.729,1.729,0,0,0-1.574.777,5.364,5.364,0,0,0-.579,2.49h4.145v-.381a4.454,4.454,0,0,0-.469-2.154A1.637,1.637,0,0,0,202.645,20.3ZM174.461,33.293a5.836,5.836,0,0,1-4.738-2.043,8.691,8.691,0,0,1-1.692-5.676V24.563a8.643,8.643,0,0,1,1.7-5.655,6.449,6.449,0,0,1,9.434,0,8.692,8.692,0,0,1,1.7,5.684V25.6a8.658,8.658,0,0,1-1.685,5.655A5.808,5.808,0,0,1,174.461,33.293ZM174.433,20.3a1.83,1.83,0,0,0-1.648,1.048,6.769,6.769,0,0,0-.593,3.216V25.6c0,2.819.764,4.248,2.27,4.248,1.39,0,2.149-1.192,2.256-3.544l.014-1.743a6.7,6.7,0,0,0-.6-3.216A1.878,1.878,0,0,0,174.433,20.3ZM158.685,33.293a6.743,6.743,0,0,1-5.544-2.381c-1.279-1.58-1.927-3.864-1.927-6.79V20.534a10.321,10.321,0,0,1,1.993-6.775,7.88,7.88,0,0,1,10.832-.432,8.9,8.9,0,0,1,2.058,5.6h-4.322a5.766,5.766,0,0,0-.7-3.112,2.757,2.757,0,0,0-2.336-.857,2.624,2.624,0,0,0-2.446,1.208,8.487,8.487,0,0,0-.761,3.977v4.028a9.341,9.341,0,0,0,.71,4.365,2.62,2.62,0,0,0,2.439,1.187,2.831,2.831,0,0,0,2.344-.828,5.472,5.472,0,0,0,.733-3h4.307a8.009,8.009,0,0,1-2.051,5.522A7.272,7.272,0,0,1,158.685,33.293Zm-23.174,0a5.836,5.836,0,0,1-4.739-2.043,8.691,8.691,0,0,1-1.692-5.676V24.563a8.643,8.643,0,0,1,1.7-5.655,6.449,6.449,0,0,1,9.434,0,8.692,8.692,0,0,1,1.7,5.684V25.6a8.658,8.658,0,0,1-1.685,5.655A5.808,5.808,0,0,1,135.511,33.293ZM135.482,20.3a1.83,1.83,0,0,0-1.648,1.048,6.77,6.77,0,0,0-.593,3.216V25.6c0,2.819.764,4.248,2.27,4.248,1.39,0,2.149-1.192,2.256-3.544l.014-1.743a6.7,6.7,0,0,0-.6-3.216A1.878,1.878,0,0,0,135.482,20.3Zm-9.961,12.993a3.831,3.831,0,0,1-3.021-1.151,5.193,5.193,0,0,1-1.036-3.453V20.256h-1.832V17.15h1.832v-3.9h4.145v3.9h2.124v3.106h-2.124v7.878a2.336,2.336,0,0,0,.257,1.292,1.16,1.16,0,0,0,.988.352,3.891,3.891,0,0,0,.982-.1l-.03,3.223A6.483,6.483,0,0,1,125.521,33.293Zm-15.161,0a3.9,3.9,0,0,1-3.31-1.5,7.227,7.227,0,0,1-1.128-4.372V17.15h4.145V27.521c.02,1.536.537,2.315,1.538,2.315a2.146,2.146,0,0,0,2.05-1.23V17.15h4.175V33h-3.9l-.118-1.451A4.1,4.1,0,0,1,110.36,33.293ZM91.64,33H87.084l6.665-21.328H97.69L104.4,33H99.8l-1.142-4.366H92.782L91.64,33Zm4.072-15.557-1.992,7.6H97.7ZM215.2,33h-4.16V17.15h3.91l.117,1.714a3.016,3.016,0,0,1,2.711-2.007,2.912,2.912,0,0,1,1.142.191l-.044,4.1-1.377-.117a2.271,2.271,0,0,0-2.3,1.494V33Zm-24.8,0h-3.955l-4.365-15.85h4.336l2.006,9.99,2.007-9.99h4.322L190.4,33ZM75.1,33H62.855V11.672H75.072V15.26h-7.91V20.3h6.709v3.472H67.162v5.654H75.1V33ZM14.167,29.107c-.045,0-.092,0-.139,0-.309-.016-.63-.024-.979-.024s-.717.008-1.14.024l-.094,0a.835.835,0,0,1-.951-1.023,1.552,1.552,0,0,0-.661-1.663c-.343-.206-.343-.6-.343-.951v-2.6h.015c0-.278,0-.561-.007-.834-.007-.551-.014-1.116.007-1.671a4.839,4.839,0,0,1,1.31-3.125c.283-.311.554-.633.759-.878s.351-.524.228-.794a.307.307,0,0,0-.3-.206,1.165,1.165,0,0,0-.25.039,1.309,1.309,0,0,1-.219.038l-.131.007c-.156.009-.317.018-.472.018A1.448,1.448,0,0,1,9.427,14.8a.894.894,0,0,1,.118-1.156,1.543,1.543,0,0,1,1.182-.485,4.1,4.1,0,0,1,.887.122,1.56,1.56,0,0,1,.713.274,1.138,1.138,0,0,0,.72.384c.287,0,.523-.231.764-.751a4.85,4.85,0,0,1,4.665-2.95c1.61-.089,3.245-.134,4.858-.134,2.636,0,5.3.121,7.928.358a1.7,1.7,0,0,1,1.269.77c.523.724,1.075,1.5,1.567,2.312.178.3.329.433.506.433a.783.783,0,0,0,.457-.211,2.851,2.851,0,0,1,2.083-.578c.814.076,1.217.431,1.233,1.086.017.686-.361,1.064-1.156,1.156-.2.015-.407.023-.609.023-.084,0-.17,0-.254,0a1.281,1.281,0,0,1-.283-.044,1.312,1.312,0,0,0-.277-.044.3.3,0,0,0-.3.2c-.113.257.072.532.235.775l.064.1a3.948,3.948,0,0,0,.564.653,4.773,4.773,0,0,1,1.454,3.276c.056,1.263.047,2.547.038,3.789,0,.463-.007.94-.007,1.413,0,.016,0,.033,0,.05a.228.228,0,0,1-.02.143,4.766,4.766,0,0,0-1.135,2.983.263.263,0,0,1-.078.195,1.056,1.056,0,0,1-.725.172c-.267,0-.535,0-.8,0s-.535,0-.8,0c-.3,0-.562,0-.8.007h-.038a.966.966,0,0,1-.763-.274.885.885,0,0,1-.162-.73,1.173,1.173,0,0,0-.158-.96c-.182-.209-.507-.3-1.085-.3h-.068c-2.472.017-4.982.026-7.462.026s-4.99-.009-7.462-.026h-.035a1.22,1.22,0,0,0-.96.275,1.05,1.05,0,0,0-.147.861,1.048,1.048,0,0,1-.17.853A1.029,1.029,0,0,1,14.167,29.107Zm19.938-5.375c-.04,0-.081,0-.122.005a.928.928,0,0,0-.963.979c.014.576.374.913,1.073,1,.4-.078,1.069-.319,1.016-1.062A.939.939,0,0,0,34.105,23.732ZM13.72,23.715a1.041,1.041,0,0,0-1.166.9.884.884,0,0,0,.168.678,1.146,1.146,0,0,0,.8.4.994.994,0,0,0,1.156-.894c.093-.679-.45-.962-.922-1.081Zm4.972.06a.436.436,0,0,0-.486.333c-.143.534.293.9.751,1.224a1.676,1.676,0,0,0,.875.247c.044,0,.088,0,.131-.005,1.3,0,2.6-.005,3.885-.005s2.59,0,3.884.005l.078,0a1.76,1.76,0,0,0,1.415-.718.836.836,0,0,0,.233-.788.436.436,0,0,0-.476-.264c-.048,0-.1,0-.144,0s-.094,0-.137,0H23.811q-.444,0-.888,0l-1.019,0h-.937c-.673,0-1.187,0-1.665.012h-.01A2.455,2.455,0,0,1,19,23.8,2.587,2.587,0,0,0,18.692,23.775Zm1.7-1.843c1.264.012,2.442.018,3.6.018s2.266-.006,3.335-.018h.005a3.2,3.2,0,0,0,2.726-1.541c.212-.322.276-.551.2-.7s-.271-.205-.6-.205l-.091,0c-.566,0-1.185.006-1.892.006q-.946,0-1.892,0t-1.892,0H18.218c-.056,0-.114-.005-.176-.011l-.027,0c-.066-.007-.135-.013-.2-.013a.408.408,0,0,0-.393.2c-.169.287.019.524.185.732.032.04.065.082.094.123a3.242,3.242,0,0,0,2.678,1.416Zm14.24-4.178a2.4,2.4,0,0,0-.537.064,3.356,3.356,0,0,0-1.94,1.158c-.055.07-.115.138-.178.211-.279.319-.6.681-.388,1.112a.46.46,0,0,0,.471.264,2.525,2.525,0,0,0,.32-.029,2.439,2.439,0,0,1,.327-.03.874.874,0,0,1,.115.007c.089.006.179.009.268.009s.179,0,.268-.009l2.135-.193a2,2,0,0,0,.2-.033l.082-.016a.934.934,0,0,0,.7-.4.986.986,0,0,0-.054-.852A1.889,1.889,0,0,0,34.636,17.754ZM13,17.758a1.9,1.9,0,0,0-1.758,1.3.924.924,0,0,0-.078.818.926.926,0,0,0,.725.386c.524.086,1.055.131,1.616.18.244.021.5.043.756.069h1.3c.313,0,.493-.057.567-.181s.039-.328-.114-.617a3.536,3.536,0,0,0-2.4-1.878A2.546,2.546,0,0,0,13,17.758ZM23.02,10.891c-1.3,0-2.623.027-3.922.079A4.789,4.789,0,0,0,14.338,14a1.123,1.123,0,0,1-.128.2c-.107.144-.217.293-.128.481a.371.371,0,0,0,.379.221,1.936,1.936,0,0,0,.2-.014,1.841,1.841,0,0,1,.192-.014H27.676c1.52,0,3.324,0,5.173.015h.019c.407,0,.631-.066.706-.209s0-.359-.21-.671c-.341-.495-.677-1-1-1.5q-.219-.332-.439-.663a1.37,1.37,0,0,0-1.1-.642C28.234,11,25.61,10.891,23.02,10.891Zm61.807,14.7H77.665V22.131h7.163v3.456Z" transform="translate(0 0)" fill="#1d57a7"/>
</svg>
